<?xml version="1.0" encoding="UTF-8"?>
<!DOCTYPE svg PUBLIC "-//W3C//DTD SVG 1.1//EN" "http://www.w3.org/Graphics/SVG/1.1/DTD/svg11.dtd">
<svg xmlns="http://www.w3.org/2000/svg" version="1.1" width="5595px" height="3397px" style="shape-rendering:geometricPrecision; text-rendering:geometricPrecision; image-rendering:optimizeQuality; fill-rule:evenodd; clip-rule:evenodd" xmlns:xlink="http://www.w3.org/1999/xlink">
<g><path style="opacity:1" fill="#88cfdf" d="M 1326.5,770.5 C 1337.1,800.807 1347.44,831.307 1357.5,862C 1389.5,862.333 1421.5,862.667 1453.5,863C 1430.68,879.911 1407.68,896.578 1384.5,913C 1381.33,915.006 1378.66,917.506 1376.5,920.5C 1385.77,950.629 1395.43,980.629 1405.5,1010.5C 1405.17,1010.83 1404.83,1011.17 1404.5,1011.5C 1378.8,992.625 1352.96,973.958 1327,955.5C 1301.01,974.152 1275.01,992.819 1249,1011.5C 1257.96,981.102 1267.46,950.769 1277.5,920.5C 1276.46,918.795 1275.12,917.295 1273.5,916C 1248.99,898.578 1224.66,880.911 1200.5,863C 1232.51,862.833 1264.51,862.333 1296.5,861.5C 1306.51,831.139 1316.51,800.805 1326.5,770.5 Z"/></g>
<g><path style="opacity:1" fill="#88cfdf" d="M 2165.5,770.5 C 2166.12,770.611 2166.62,770.944 2167,771.5C 2176.73,801.537 2186.57,831.537 2196.5,861.5C 2228.49,862.333 2260.49,862.833 2292.5,863C 2269.68,879.911 2246.68,896.578 2223.5,913C 2220.33,915.006 2217.66,917.506 2215.5,920.5C 2225.17,950.505 2234.84,980.505 2244.5,1010.5C 2244.17,1010.83 2243.83,1011.17 2243.5,1011.5C 2217.8,992.625 2191.96,973.958 2166,955.5C 2140.04,973.958 2114.2,992.625 2088.5,1011.5C 2088.17,1011.17 2087.83,1010.83 2087.5,1010.5C 2097.1,981.537 2106.6,952.537 2116,923.5C 2116.67,921.833 2116.67,920.167 2116,918.5C 2090.23,900.367 2064.73,881.867 2039.5,863C 2071.5,862.667 2103.5,862.333 2135.5,862C 2145.8,831.587 2155.8,801.087 2165.5,770.5 Z"/></g>
<g><path style="opacity:1" fill="#88cfdf" d="M 2502.5,771.5 C 2570.17,771.5 2637.83,771.5 2705.5,771.5C 2705.5,860.167 2705.5,948.833 2705.5,1037.5C 2804.5,1037.5 2903.5,1037.5 3002.5,1037.5C 3002.5,948.833 3002.5,860.167 3002.5,771.5C 3070.17,771.5 3137.83,771.5 3205.5,771.5C 3205.5,1010.17 3205.5,1248.83 3205.5,1487.5C 3137.83,1487.5 3070.17,1487.5 3002.5,1487.5C 3002.5,1395.83 3002.5,1304.17 3002.5,1212.5C 2903.5,1212.5 2804.5,1212.5 2705.5,1212.5C 2705.5,1304.17 2705.5,1395.83 2705.5,1487.5C 2637.83,1487.5 2570.17,1487.5 2502.5,1487.5C 2502.5,1248.83 2502.5,1010.17 2502.5,771.5 Z"/></g>
<g><path style="opacity:1" fill="#88cfdf" d="M 1745.5,1008.5 C 1746.5,1008.47 1747.16,1008.97 1747.5,1010C 1757.07,1039.54 1766.73,1069.04 1776.5,1098.5C 1808.83,1099.17 1841.17,1099.83 1873.5,1100.5C 1847.19,1119.48 1821.19,1138.81 1795.5,1158.5C 1805.94,1188.64 1815.44,1218.97 1824,1249.5C 1798.26,1230.71 1772.42,1212.04 1746.5,1193.5C 1720.58,1212.04 1694.74,1230.71 1669,1249.5C 1677.56,1218.97 1687.06,1188.64 1697.5,1158.5C 1671.81,1138.81 1645.81,1119.48 1619.5,1100.5C 1651.83,1099.83 1684.17,1099.17 1716.5,1098.5C 1726.57,1068.61 1736.24,1038.61 1745.5,1008.5 Z"/></g>
<g><path style="opacity:1" fill="#88cfdf" d="M 1326.5,1246.5 C 1337.27,1276.48 1347.27,1306.81 1356.5,1337.5C 1388.84,1337.17 1421.17,1337.5 1453.5,1338.5C 1428.13,1357.28 1402.63,1375.94 1377,1394.5C 1377.35,1399.23 1378.35,1403.9 1380,1408.5C 1388.4,1434.54 1396.9,1460.54 1405.5,1486.5C 1405,1487.52 1404.33,1487.69 1403.5,1487C 1378,1468.17 1352.5,1449.33 1327,1430.5C 1301.28,1449.89 1275.28,1468.89 1249,1487.5C 1257.7,1457.74 1267.03,1428.07 1277,1398.5C 1277.67,1397.17 1277.67,1395.83 1277,1394.5C 1251.06,1376.38 1225.56,1357.71 1200.5,1338.5C 1232.49,1337.67 1264.49,1337.17 1296.5,1337C 1306.6,1306.86 1316.6,1276.69 1326.5,1246.5 Z"/></g>
<g><path style="opacity:1" fill="#88cfdf" d="M 2165.5,1246.5 C 2166.12,1246.61 2166.62,1246.94 2167,1247.5C 2176.64,1277.42 2186.47,1307.26 2196.5,1337C 2228.51,1337.17 2260.51,1337.67 2292.5,1338.5C 2267.44,1357.71 2241.94,1376.38 2216,1394.5C 2215.33,1395.83 2215.33,1397.17 2216,1398.5C 2225.6,1427.81 2235.1,1457.14 2244.5,1486.5C 2244.17,1486.83 2243.83,1487.17 2243.5,1487.5C 2217.53,1468.69 2191.69,1449.69 2166,1430.5C 2140.31,1449.69 2114.47,1468.69 2088.5,1487.5C 2088.17,1487.17 2087.83,1486.83 2087.5,1486.5C 2096.43,1459.54 2105.27,1432.54 2114,1405.5C 2115.32,1401.89 2115.99,1398.22 2116,1394.5C 2090.37,1375.94 2064.87,1357.28 2039.5,1338.5C 2071.83,1337.5 2104.16,1337.17 2136.5,1337.5C 2145.56,1306.97 2155.23,1276.64 2165.5,1246.5 Z"/></g>
<g><path style="opacity:1" fill="#969898" d="M 3835.5,1719.5 C 3861.84,1719.17 3888.18,1719.5 3914.5,1720.5C 3895.38,1748.58 3876.38,1776.75 3857.5,1805C 3835.16,1805.83 3812.83,1805.67 3790.5,1804.5C 3805.26,1775.98 3820.26,1747.65 3835.5,1719.5 Z"/></g>
<g><path style="opacity:1" fill="#969898" d="M 3520.5,1720.5 C 3531.96,1719.91 3543.29,1720.74 3554.5,1723C 3569.18,1727.84 3577.01,1738 3578,1753.5C 3581,1778.14 3570.5,1792.97 3546.5,1798C 3530.86,1800.61 3515.86,1798.61 3501.5,1792C 3490.74,1783.76 3485.74,1772.76 3486.5,1759C 3486.76,1736.25 3498.09,1723.41 3520.5,1720.5 Z"/></g>
<g><path style="opacity:1" fill="#969898" d="M 1824.5,1737.5 C 1851.17,1737.5 1877.83,1737.5 1904.5,1737.5C 1904.33,1843.83 1904.5,1950.17 1905,2056.5C 1908.3,2071.57 1917.47,2077.07 1932.5,2073C 1939.53,2070.48 1946.53,2067.98 1953.5,2065.5C 1954.5,2085.52 1955.83,2105.52 1957.5,2125.5C 1956.66,2128.45 1954.66,2130.28 1951.5,2131C 1925.14,2140.56 1898.14,2143.22 1870.5,2139C 1851.23,2134.89 1837.9,2123.73 1830.5,2105.5C 1812.99,2123.76 1791.66,2134.92 1766.5,2139C 1724.04,2146.78 1685.7,2137.78 1651.5,2112C 1615.96,2078.72 1598.62,2037.55 1599.5,1988.5C 1598.96,1952.3 1608.8,1919.3 1629,1889.5C 1659.4,1851.12 1699.24,1833.62 1748.5,1837C 1776.48,1838.38 1801.48,1847.54 1823.5,1864.5C 1824.5,1822.17 1824.83,1779.84 1824.5,1737.5 Z M 1746.5,1906.5 C 1776.31,1903.71 1802.14,1912.38 1824,1932.5C 1824.67,1970.5 1824.67,2008.5 1824,2046.5C 1789.88,2075.04 1753.05,2079.2 1713.5,2059C 1696.31,2046.47 1685.81,2029.63 1682,2008.5C 1676.3,1979.65 1682.3,1953.65 1700,1930.5C 1712.88,1917.31 1728.38,1909.31 1746.5,1906.5 Z"/></g>
<g><path style="opacity:1" fill="#969898" d="M 1247.5,1753.5 C 1348.17,1753.5 1448.83,1753.5 1549.5,1753.5C 1549.5,1776.83 1549.5,1800.17 1549.5,1823.5C 1474.17,1823.5 1398.83,1823.5 1323.5,1823.5C 1323.5,1850.83 1323.5,1878.17 1323.5,1905.5C 1385.17,1905.5 1446.83,1905.5 1508.5,1905.5C 1508.5,1928.5 1508.5,1951.5 1508.5,1974.5C 1446.83,1974.5 1385.17,1974.5 1323.5,1974.5C 1323.5,2004.83 1323.5,2035.17 1323.5,2065.5C 1398.83,2065.5 1474.17,2065.5 1549.5,2065.5C 1549.5,2088.83 1549.5,2112.17 1549.5,2135.5C 1448.83,2135.5 1348.17,2135.5 1247.5,2135.5C 1247.5,2008.17 1247.5,1880.83 1247.5,1753.5 Z"/></g>
<g><path style="opacity:1" fill="#969898" d="M 2541.5,1833.5 C 2572.99,1831.9 2602.66,1838.4 2630.5,1853C 2665.09,1875.66 2682.25,1907.83 2682,1949.5C 2658.94,1955.22 2635.78,1960.56 2612.5,1965.5C 2611.69,1950.24 2607.19,1936.24 2599,1923.5C 2586.18,1909.44 2570.18,1902.78 2551,1903.5C 2518.11,1904.59 2495.44,1920.26 2483,1950.5C 2472.58,1980.89 2474.91,2010.22 2490,2038.5C 2504.88,2059.7 2525.38,2071.2 2551.5,2073C 2586.46,2074.24 2617.79,2064.24 2645.5,2043C 2646.76,2042.02 2648.09,2041.68 2649.5,2042C 2659.36,2062.21 2669.36,2082.38 2679.5,2102.5C 2652.82,2123.5 2622.48,2136.33 2588.5,2141C 2552.43,2146.36 2517.1,2143.36 2482.5,2132C 2432.53,2111.01 2404.03,2073.51 2397,2019.5C 2390.8,1979.38 2397.13,1941.38 2416,1905.5C 2439.04,1868.15 2472.21,1845.32 2515.5,1837C 2524.27,1835.5 2532.94,1834.33 2541.5,1833.5 Z"/></g>
<g><path style="opacity:1" fill="#969898" d="M 3282.5,1833.5 C 3308.39,1832.53 3333.39,1836.69 3357.5,1846C 3400.56,1866.93 3422.23,1901.43 3422.5,1949.5C 3399.25,1955.22 3375.92,1960.55 3352.5,1965.5C 3351.67,1925.84 3331.5,1905.17 3292,1903.5C 3251.22,1905.94 3226.89,1927.27 3219,1967.5C 3214.57,1992.15 3218.24,2015.49 3230,2037.5C 3242.9,2057.02 3261.06,2068.52 3284.5,2072C 3307.7,2075.54 3330.04,2072.54 3351.5,2063C 3364.91,2057.22 3377.41,2050.05 3389,2041.5C 3400.07,2061.14 3410.24,2081.31 3419.5,2102C 3414.32,2107.61 3408.32,2112.27 3401.5,2116C 3353.03,2142.14 3301.7,2149.81 3247.5,2139C 3182.26,2123.42 3145.43,2082.25 3137,2015.5C 3131.94,1977.92 3137.94,1942.26 3155,1908.5C 3175.02,1874.16 3204.19,1851.33 3242.5,1840C 3255.79,1836.68 3269.13,1834.51 3282.5,1833.5 Z"/></g>
<g><path style="opacity:1" fill="#969898" d="M 3819.5,1833.5 C 3860.39,1832.08 3897.05,1843.58 3929.5,1868C 3970.98,1904.72 3989.14,1950.89 3984,2006.5C 3977.4,2063.25 3948.57,2104.08 3897.5,2129C 3857.33,2145.52 3816.33,2147.85 3774.5,2136C 3713.24,2114.74 3678.41,2071.9 3670,2007.5C 3664.34,1948.76 3684.17,1900.92 3729.5,1864C 3756.68,1845.33 3786.68,1835.16 3819.5,1833.5 Z M 3818.5,1906.5 C 3860.23,1904.6 3888.73,1922.93 3904,1961.5C 3914.31,1997.09 3906.15,2027.59 3879.5,2053C 3852.55,2072.06 3823.55,2075.73 3792.5,2064C 3759.56,2046.98 3744.06,2019.81 3746,1982.5C 3751.03,1938.68 3775.2,1913.34 3818.5,1906.5 Z"/></g>
<g><path style="opacity:1" fill="#969898" d="M 2862.5,1836.5 C 2890.71,1834.81 2917.38,1840.31 2942.5,1853C 2948.45,1856.56 2953.95,1860.73 2959,1865.5C 2959.5,1857.51 2959.67,1849.51 2959.5,1841.5C 2985.83,1841.5 3012.17,1841.5 3038.5,1841.5C 3038.02,1913.53 3038.52,1985.53 3040,2057.5C 3041.87,2067.87 3048.04,2073.54 3058.5,2074.5C 3063.21,2073.9 3067.88,2073.07 3072.5,2072C 3077.86,2069.72 3083.2,2067.55 3088.5,2065.5C 3090.07,2086.48 3090.91,2107.48 3091,2128.5C 3061.06,2141.37 3030.23,2144.21 2998.5,2137C 2981.01,2130.17 2969.84,2117.67 2965,2099.5C 2940.19,2126.73 2909.19,2140.39 2872,2140.5C 2813.65,2139.34 2772.32,2112.34 2748,2059.5C 2731.23,2015.54 2730.23,1971.21 2745,1926.5C 2765.83,1872.5 2805,1842.5 2862.5,1836.5 Z M 2880.5,1906.5 C 2910.67,1903.5 2936.84,1912.17 2959,1932.5C 2959.67,1970.17 2959.67,2007.83 2959,2045.5C 2929.79,2071.73 2896.62,2078.23 2859.5,2065C 2836.04,2053.28 2821.87,2034.45 2817,2008.5C 2811.65,1979.22 2817.98,1952.89 2836,1929.5C 2848.48,1917.18 2863.31,1909.51 2880.5,1906.5 Z"/></g>
<g><path style="opacity:1" fill="#969898" d="M 4219.5,1836.5 C 4289.29,1835.12 4328.79,1869.12 4338,1938.5C 4339.27,1976.14 4339.94,2013.81 4340,2051.5C 4342.34,2071.59 4353.17,2078.43 4372.5,2072C 4378.2,2069.81 4383.87,2067.65 4389.5,2065.5C 4390.52,2083.66 4391.52,2101.83 4392.5,2120C 4392.48,2123.09 4392.14,2126.09 4391.5,2129C 4362.72,2140.98 4333.06,2143.98 4302.5,2138C 4283.33,2132.17 4270.83,2119.67 4265,2100.5C 4263.84,2096.2 4262.84,2091.87 4262,2087.5C 4260.72,2048.86 4260.05,2010.19 4260,1971.5C 4256.19,1925.67 4231.69,1905.83 4186.5,1912C 4162.69,1921.14 4146.19,1937.64 4137,1961.5C 4136.5,2019.5 4136.33,2077.5 4136.5,2135.5C 4110.17,2135.5 4083.83,2135.5 4057.5,2135.5C 4057.5,2037.5 4057.5,1939.5 4057.5,1841.5C 4083.83,1841.5 4110.17,1841.5 4136.5,1841.5C 4136.33,1853.17 4136.5,1864.84 4137,1876.5C 4159.38,1852.56 4186.88,1839.23 4219.5,1836.5 Z"/></g>
<g><path style="opacity:1" fill="#969898" d="M 2016.5,1841.5 C 2042.83,1841.5 2069.17,1841.5 2095.5,1841.5C 2095.33,1899.17 2095.5,1956.83 2096,2014.5C 2097.17,2051.34 2116.17,2069.34 2153,2068.5C 2182,2068.17 2203.67,2055.51 2218,2030.5C 2218.5,1967.5 2218.67,1904.5 2218.5,1841.5C 2245.17,1841.5 2271.83,1841.5 2298.5,1841.5C 2298.33,1913.17 2298.5,1984.83 2299,2056.5C 2299.97,2066.14 2305.14,2071.97 2314.5,2074C 2319.91,2074.21 2325.24,2073.54 2330.5,2072C 2336.2,2069.81 2341.87,2067.65 2347.5,2065.5C 2349.04,2086.5 2350.21,2107.5 2351,2128.5C 2324.88,2139.41 2297.71,2143.24 2269.5,2140C 2247.89,2136.56 2232.89,2124.73 2224.5,2104.5C 2205.61,2123.94 2182.61,2135.44 2155.5,2139C 2130.07,2143.42 2105.07,2141.75 2080.5,2134C 2050.53,2121.26 2031.36,2099.09 2023,2067.5C 2020.95,2059.58 2019.28,2051.58 2018,2043.5C 2016.53,1976.19 2016.03,1908.86 2016.5,1841.5 Z"/></g>
<g><path style="opacity:1" fill="#969898" d="M 3492.5,1841.5 C 3519.17,1841.5 3545.83,1841.5 3572.5,1841.5C 3572.33,1912.83 3572.5,1984.17 3573,2055.5C 3573.85,2065.41 3579.02,2071.57 3588.5,2074C 3599.96,2074.3 3610.63,2071.47 3620.5,2065.5C 3622.62,2085.11 3624.29,2104.78 3625.5,2124.5C 3625.45,2126.1 3625.12,2127.6 3624.5,2129C 3595.35,2140.83 3565.35,2143.83 3534.5,2138C 3513.58,2130.74 3500.75,2116.24 3496,2094.5C 3494.29,2086.93 3493.29,2079.26 3493,2071.5C 3492.5,1994.83 3492.33,1918.17 3492.5,1841.5 Z"/></g>
<g><path style="opacity:1" fill="#969898" d="M 1517.5,2417.5 C 1530.83,2417.5 1544.17,2417.5 1557.5,2417.5C 1557.33,2440.17 1557.5,2462.84 1558,2485.5C 1575.51,2467.07 1595.68,2463.57 1618.5,2475C 1627.51,2482.51 1633.34,2492.01 1636,2503.5C 1640.65,2520.65 1640.31,2537.65 1635,2554.5C 1626.2,2577.66 1609.37,2588.99 1584.5,2588.5C 1568,2587.81 1551.67,2585.81 1535.5,2582.5C 1535.67,2533.5 1535.5,2484.5 1535,2435.5C 1529.52,2434.7 1524.19,2433.37 1519,2431.5C 1517.62,2426.96 1517.12,2422.3 1517.5,2417.5 Z M 1581.5,2485.5 C 1599.12,2483.22 1610.29,2490.55 1615,2507.5C 1619.79,2526.19 1617.46,2543.85 1608,2560.5C 1601.12,2568.74 1592.29,2572.41 1581.5,2571.5C 1573.41,2571.15 1565.41,2570.15 1557.5,2568.5C 1557.33,2546.5 1557.5,2524.5 1558,2502.5C 1564.08,2494.23 1571.92,2488.56 1581.5,2485.5 Z"/></g>
<g><path style="opacity:1" fill="#969898" d="M 2300.5,2417.5 C 2313.83,2417.5 2327.17,2417.5 2340.5,2417.5C 2340.5,2468.17 2340.5,2518.83 2340.5,2569.5C 2346.05,2569.64 2351.21,2570.97 2356,2573.5C 2356.5,2577.82 2356.67,2582.15 2356.5,2586.5C 2345.83,2586.67 2335.16,2586.5 2324.5,2586C 2323.67,2585.17 2322.83,2584.33 2322,2583.5C 2321.17,2578.86 2320.5,2574.19 2320,2569.5C 2301.23,2590.16 2279.73,2593.66 2255.5,2580C 2244.96,2569.76 2239.13,2557.26 2238,2542.5C 2234.64,2521.31 2238.97,2501.97 2251,2484.5C 2266.24,2468.48 2284.41,2463.98 2305.5,2471C 2310.1,2473.21 2314.27,2476.05 2318,2479.5C 2318.67,2464.83 2318.67,2450.17 2318,2435.5C 2312.91,2434.18 2307.74,2433.01 2302.5,2432C 2302,2431.5 2301.5,2431 2301,2430.5C 2300.5,2426.18 2300.33,2421.85 2300.5,2417.5 Z M 2291.5,2484.5 C 2302.39,2484.69 2311.22,2489.03 2318,2497.5C 2318.67,2516.5 2318.67,2535.5 2318,2554.5C 2305.65,2571.06 2290.15,2574.9 2271.5,2566C 2264.85,2559.2 2261.02,2551.04 2260,2541.5C 2258.67,2529.27 2259.67,2517.27 2263,2505.5C 2268.18,2492.47 2277.68,2485.47 2291.5,2484.5 Z"/></g>
<g><path style="opacity:1" fill="#969898" d="M 2529.5,2417.5 C 2542.17,2417.5 2554.83,2417.5 2567.5,2417.5C 2567.33,2467.83 2567.5,2518.17 2568,2568.5C 2573.36,2569.63 2578.53,2571.3 2583.5,2573.5C 2584.44,2577.76 2584.77,2582.1 2584.5,2586.5C 2566.17,2586.5 2547.83,2586.5 2529.5,2586.5C 2529.23,2582.1 2529.56,2577.76 2530.5,2573.5C 2535.5,2571.03 2540.83,2569.7 2546.5,2569.5C 2546.83,2524.83 2546.5,2480.16 2545.5,2435.5C 2540.08,2434.39 2534.91,2432.72 2530,2430.5C 2529.5,2426.18 2529.33,2421.85 2529.5,2417.5 Z"/></g>
<g><path style="opacity:1" fill="#969898" d="M 3281.5,2417.5 C 3294.83,2417.5 3308.17,2417.5 3321.5,2417.5C 3321.33,2440.17 3321.5,2462.84 3322,2485.5C 3339.55,2467.06 3359.72,2463.56 3382.5,2475C 3393.86,2485.22 3400.36,2498.06 3402,2513.5C 3406.12,2534.59 3402.12,2553.93 3390,2571.5C 3378.98,2583.9 3365.14,2589.57 3348.5,2588.5C 3332.34,2587.72 3316.34,2585.72 3300.5,2582.5C 3300.83,2533.5 3300.5,2484.5 3299.5,2435.5C 3294.09,2434.65 3288.76,2433.49 3283.5,2432C 3282.87,2431.25 3282.37,2430.42 3282,2429.5C 3281.5,2425.51 3281.33,2421.51 3281.5,2417.5 Z M 3345.5,2485.5 C 3361.28,2482.82 3372.12,2488.82 3378,2503.5C 3383.94,2522.94 3382.27,2541.61 3373,2559.5C 3366.03,2568.44 3356.86,2572.44 3345.5,2571.5C 3337.41,2571.15 3329.41,2570.15 3321.5,2568.5C 3321.33,2546.5 3321.5,2524.5 3322,2502.5C 3328.08,2494.23 3335.92,2488.56 3345.5,2485.5 Z"/></g>
<g><path style="opacity:1" fill="#969898" d="M 3414.5,2417.5 C 3427.17,2417.5 3439.83,2417.5 3452.5,2417.5C 3452.5,2468.17 3452.5,2518.83 3452.5,2569.5C 3458.05,2569.64 3463.21,2570.97 3468,2573.5C 3468.5,2577.82 3468.67,2582.15 3468.5,2586.5C 3450.5,2586.5 3432.5,2586.5 3414.5,2586.5C 3414.33,2582.15 3414.5,2577.82 3415,2573.5C 3419.84,2571.23 3425.01,2569.89 3430.5,2569.5C 3430.67,2524.83 3430.5,2480.17 3430,2435.5C 3424.75,2434.44 3419.75,2432.78 3415,2430.5C 3414.5,2426.18 3414.33,2421.85 3414.5,2417.5 Z"/></g>
<g><path style="opacity:1" fill="#969898" d="M 1671.5,2419.5 C 1687.27,2418.09 1693.77,2425.09 1691,2440.5C 1684.04,2450.68 1675.7,2452.02 1666,2444.5C 1660.01,2434.42 1661.84,2426.09 1671.5,2419.5 Z"/></g>
<g><path style="opacity:1" fill="#969898" d="M 3502.5,2419.5 C 3518.33,2418.83 3524.5,2426.16 3521,2441.5C 3515.46,2449.67 3508.29,2451.51 3499.5,2447C 3489.53,2436.61 3490.53,2427.45 3502.5,2419.5 Z"/></g>
<g><path style="opacity:1" fill="#969898" d="M 1318.5,2420.5 C 1342.29,2419.58 1365.29,2423.41 1387.5,2432C 1388.49,2445.09 1388.82,2458.25 1388.5,2471.5C 1383.82,2471.67 1379.15,2471.5 1374.5,2471C 1373.58,2470.63 1372.75,2470.13 1372,2469.5C 1370.77,2461.87 1369.94,2454.21 1369.5,2446.5C 1350.47,2440.28 1331.13,2439.11 1311.5,2443C 1290.59,2448.91 1277.43,2462.41 1272,2483.5C 1266.8,2505.74 1269.8,2526.74 1281,2546.5C 1296.62,2565.6 1316.79,2573.1 1341.5,2569C 1350.54,2567.54 1359.21,2564.88 1367.5,2561C 1368.49,2549.25 1368.82,2537.41 1368.5,2525.5C 1359.06,2525.95 1349.73,2525.45 1340.5,2524C 1340,2523.5 1339.5,2523 1339,2522.5C 1338.5,2517.51 1338.33,2512.51 1338.5,2507.5C 1355.5,2507.5 1372.5,2507.5 1389.5,2507.5C 1389.67,2528.84 1389.5,2550.17 1389,2571.5C 1377.04,2579.6 1363.87,2584.77 1349.5,2587C 1321.12,2592.78 1295.45,2587.11 1272.5,2570C 1252.21,2549.8 1243.37,2525.3 1246,2496.5C 1250.28,2452.05 1274.45,2426.72 1318.5,2420.5 Z"/></g>
<g><path style="opacity:1" fill="#969898" d="M 3218.5,2420.5 C 3226.84,2420.33 3235.17,2420.5 3243.5,2421C 3234.2,2431.97 3224.54,2442.63 3214.5,2453C 3208.58,2454.74 3202.58,2454.91 3196.5,2453.5C 3201,2445.83 3205.5,2438.17 3210,2430.5C 3212.15,2426.5 3214.98,2423.16 3218.5,2420.5 Z"/></g>
<g><path style="opacity:1" fill="#969898" d="M 2762.5,2421.5 C 2785.17,2421.33 2807.84,2421.5 2830.5,2422C 2842.86,2422.34 2854.53,2425.34 2865.5,2431C 2878.01,2439.85 2884.35,2452.02 2884.5,2467.5C 2882.71,2492.46 2869.71,2508.29 2845.5,2515C 2859.27,2532.05 2872.44,2549.55 2885,2567.5C 2890.67,2569.5 2896.33,2571.5 2902,2573.5C 2902.5,2577.82 2902.67,2582.15 2902.5,2586.5C 2892.06,2586.95 2881.73,2586.45 2871.5,2585C 2856.08,2563.49 2840.41,2542.16 2824.5,2521C 2823.33,2520.58 2822.33,2519.91 2821.5,2519C 2815.18,2518.5 2808.84,2518.33 2802.5,2518.5C 2802.5,2535.5 2802.5,2552.5 2802.5,2569.5C 2807.95,2569.82 2813.12,2571.15 2818,2573.5C 2818.5,2577.82 2818.67,2582.15 2818.5,2586.5C 2799.83,2586.5 2781.17,2586.5 2762.5,2586.5C 2762.33,2582.15 2762.5,2577.82 2763,2573.5C 2768.21,2571.46 2773.54,2569.79 2779,2568.5C 2779.5,2525.5 2779.67,2482.5 2779.5,2439.5C 2773.89,2439.05 2768.55,2437.71 2763.5,2435.5C 2762.56,2430.9 2762.22,2426.23 2762.5,2421.5 Z M 2801.5,2440.5 C 2811.17,2440.33 2820.84,2440.5 2830.5,2441C 2857.97,2444.77 2866.8,2459.6 2857,2485.5C 2849.93,2494.96 2840.43,2500.12 2828.5,2501C 2819.51,2501.5 2810.51,2501.67 2801.5,2501.5C 2801.5,2481.17 2801.5,2460.83 2801.5,2440.5 Z"/></g>
<g><path style="opacity:1" fill="#969898" d="M 1898.5,2467.5 C 1904.43,2467.78 1910.09,2469.11 1915.5,2471.5C 1915.83,2472.5 1916.17,2473.5 1916.5,2474.5C 1915.67,2479.5 1914.83,2484.5 1914,2489.5C 1913.04,2490.89 1911.71,2491.56 1910,2491.5C 1889.04,2485.16 1874.71,2492.16 1867,2512.5C 1866.5,2531.5 1866.33,2550.5 1866.5,2569.5C 1871.19,2570.14 1875.86,2570.97 1880.5,2572C 1881.7,2572.9 1882.53,2574.07 1883,2575.5C 1883.5,2579.15 1883.67,2582.82 1883.5,2586.5C 1865.17,2586.5 1846.83,2586.5 1828.5,2586.5C 1828.21,2582.06 1828.71,2577.73 1830,2573.5C 1834.91,2571.26 1840.07,2569.93 1845.5,2569.5C 1845.5,2542.17 1845.5,2514.83 1845.5,2487.5C 1840.76,2487.12 1836.1,2486.29 1831.5,2485C 1830.11,2483.83 1829.27,2482.33 1829,2480.5C 1828.5,2477.18 1828.33,2473.85 1828.5,2470.5C 1839.51,2470.33 1850.51,2470.5 1861.5,2471C 1862.7,2471.9 1863.53,2473.07 1864,2474.5C 1864.37,2480.2 1865.03,2485.87 1866,2491.5C 1872.8,2477.84 1883.64,2469.84 1898.5,2467.5 Z"/></g>
<g><path style="opacity:1" fill="#969898" d="M 2644.5,2467.5 C 2669.91,2468.74 2683.74,2482.07 2686,2507.5C 2686.5,2528.16 2686.67,2548.83 2686.5,2569.5C 2691.11,2570.11 2695.61,2571.11 2700,2572.5C 2700.5,2577.15 2700.67,2581.82 2700.5,2586.5C 2690.42,2586.92 2680.42,2586.42 2670.5,2585C 2668.83,2580.66 2667.66,2576.16 2667,2571.5C 2648.57,2589.45 2627.74,2592.95 2604.5,2582C 2595.5,2573.32 2592.33,2562.82 2595,2550.5C 2598.72,2540.45 2605.55,2533.28 2615.5,2529C 2631.57,2522.82 2648.24,2519.99 2665.5,2520.5C 2666.7,2510.01 2664.54,2500.35 2659,2491.5C 2652.17,2485.84 2644.34,2484.01 2635.5,2486C 2633.12,2486.51 2630.79,2487.18 2628.5,2488C 2622.39,2491.72 2616.06,2494.89 2609.5,2497.5C 2604.17,2495.83 2600.83,2492.16 2599.5,2486.5C 2612.11,2474.36 2627.11,2468.03 2644.5,2467.5 Z M 2654.5,2534.5 C 2657.83,2534.5 2661.17,2534.5 2664.5,2534.5C 2664.67,2542.51 2664.5,2550.51 2664,2558.5C 2652.89,2570.98 2639.39,2575.15 2623.5,2571C 2615.24,2565.89 2612.74,2558.72 2616,2549.5C 2619.27,2545.24 2623.43,2542.08 2628.5,2540C 2637.13,2537.31 2645.79,2535.48 2654.5,2534.5 Z"/></g>
<g><path style="opacity:1" fill="#969898" d="M 3089.5,2467.5 C 3116.86,2469.36 3132.03,2484.02 3135,2511.5C 3137.37,2527.15 3136.03,2542.49 3131,2557.5C 3117.95,2585.08 3096.78,2594.25 3067.5,2585C 3062.79,2582.95 3058.62,2580.12 3055,2576.5C 3054.5,2587.16 3054.33,2597.83 3054.5,2608.5C 3059.88,2609.14 3065.05,2610.47 3070,2612.5C 3070.5,2617.15 3070.67,2621.82 3070.5,2626.5C 3052.5,2626.5 3034.5,2626.5 3016.5,2626.5C 3016.33,2621.82 3016.5,2617.15 3017,2612.5C 3021.65,2610.6 3026.48,2609.27 3031.5,2608.5C 3032.5,2568.17 3032.83,2527.84 3032.5,2487.5C 3027.05,2487.18 3021.88,2485.85 3017,2483.5C 3016.5,2479.18 3016.33,2474.85 3016.5,2470.5C 3027.51,2470.33 3038.51,2470.5 3049.5,2471C 3050,2471.5 3050.5,2472 3051,2472.5C 3051.8,2477.17 3052.63,2481.84 3053.5,2486.5C 3063.09,2475.37 3075.09,2469.04 3089.5,2467.5 Z M 3079.5,2485.5 C 3096.83,2484 3107.67,2491.67 3112,2508.5C 3115.21,2522.22 3114.88,2535.89 3111,2549.5C 3104.53,2566.83 3092.03,2573.99 3073.5,2571C 3065.86,2568.93 3059.69,2564.77 3055,2558.5C 3054.83,2549.17 3054.67,2539.83 3054.5,2530.5C 3054.36,2520.41 3054.86,2510.41 3056,2500.5C 3062.23,2492.81 3070.06,2487.81 3079.5,2485.5 Z"/></g>
<g><path style="opacity:1" fill="#969898" d="M 3698.5,2467.5 C 3723.91,2468.74 3737.74,2482.08 3740,2507.5C 3740.5,2528.16 3740.67,2548.83 3740.5,2569.5C 3745.11,2570.11 3749.61,2571.11 3754,2572.5C 3754.5,2577.15 3754.67,2581.82 3754.5,2586.5C 3744.42,2586.92 3734.42,2586.42 3724.5,2585C 3722.83,2580.66 3721.66,2576.16 3721,2571.5C 3702.58,2589.45 3681.75,2592.95 3658.5,2582C 3649.5,2573.32 3646.33,2562.82 3649,2550.5C 3652.72,2540.45 3659.55,2533.28 3669.5,2529C 3685.57,2522.82 3702.24,2519.99 3719.5,2520.5C 3720.72,2510.54 3718.88,2501.21 3714,2492.5C 3707.11,2485.91 3698.95,2483.74 3689.5,2486C 3687.12,2486.51 3684.79,2487.18 3682.5,2488C 3676.39,2491.72 3670.06,2494.89 3663.5,2497.5C 3658.17,2495.83 3654.83,2492.16 3653.5,2486.5C 3666.11,2474.36 3681.11,2468.03 3698.5,2467.5 Z M 3708.5,2534.5 C 3711.83,2534.5 3715.17,2534.5 3718.5,2534.5C 3718.67,2542.51 3718.5,2550.51 3718,2558.5C 3706.89,2570.98 3693.39,2575.15 3677.5,2571C 3669.24,2565.89 3666.74,2558.72 3670,2549.5C 3673.27,2545.24 3677.43,2542.08 3682.5,2540C 3691.13,2537.31 3699.8,2535.48 3708.5,2534.5 Z"/></g>
<g><path style="opacity:1" fill="#969898" d="M 1448.5,2468.5 C 1470.63,2465.81 1488.79,2472.81 1503,2489.5C 1514.12,2509.45 1516.45,2530.45 1510,2552.5C 1500.69,2576.25 1483.19,2588.25 1457.5,2588.5C 1420.43,2585.59 1401.76,2565.42 1401.5,2528C 1401.19,2495.18 1416.86,2475.34 1448.5,2468.5 Z M 1450.5,2485.5 C 1472.43,2483.37 1485.6,2493.04 1490,2514.5C 1493.28,2531.24 1490.62,2546.91 1482,2561.5C 1473.6,2570.14 1463.44,2573.31 1451.5,2571C 1435.6,2567.09 1426.77,2556.93 1425,2540.5C 1422.96,2527.49 1424.3,2514.83 1429,2502.5C 1433.75,2493.57 1440.91,2487.9 1450.5,2485.5 Z"/></g>
<g><path style="opacity:1" fill="#969898" d="M 1758.5,2468.5 C 1791.96,2465.48 1811.13,2480.48 1816,2513.5C 1817.01,2518.56 1816.51,2523.39 1814.5,2528C 1787.84,2528.5 1761.17,2528.67 1734.5,2528.5C 1735.63,2561.48 1752.3,2574.98 1784.5,2569C 1791.33,2566.41 1798,2563.58 1804.5,2560.5C 1810.06,2562.22 1813.23,2565.89 1814,2571.5C 1804.17,2581.16 1792.33,2586.66 1778.5,2588C 1736.27,2589.78 1714.61,2569.44 1713.5,2527C 1713.49,2495.56 1728.49,2476.06 1758.5,2468.5 Z M 1761.5,2484.5 C 1783.95,2482.72 1795.95,2493.05 1797.5,2515.5C 1776.82,2515.83 1756.16,2515.5 1735.5,2514.5C 1737.72,2498.63 1746.39,2488.63 1761.5,2484.5 Z"/></g>
<g><path style="opacity:1" fill="#969898" d="M 1992.5,2468.5 C 2007.21,2466.05 2020.04,2469.72 2031,2479.5C 2037.39,2487.69 2040.72,2497.03 2041,2507.5C 2041.5,2528.16 2041.67,2548.83 2041.5,2569.5C 2047.05,2569.64 2052.21,2570.97 2057,2573.5C 2057.5,2577.82 2057.67,2582.15 2057.5,2586.5C 2044.83,2586.5 2032.17,2586.5 2019.5,2586.5C 2019.67,2558.83 2019.5,2531.16 2019,2503.5C 2016.23,2491.28 2008.56,2485.28 1996,2485.5C 1983.99,2486.51 1973.99,2491.51 1966,2500.5C 1965.5,2523.5 1965.33,2546.5 1965.5,2569.5C 1970.94,2569.89 1976.11,2571.22 1981,2573.5C 1981.5,2577.82 1981.67,2582.15 1981.5,2586.5C 1963.5,2586.5 1945.5,2586.5 1927.5,2586.5C 1927.23,2582.1 1927.56,2577.76 1928.5,2573.5C 1933.55,2571.29 1938.89,2569.95 1944.5,2569.5C 1944.5,2542.17 1944.5,2514.83 1944.5,2487.5C 1939.32,2487.4 1934.32,2486.4 1929.5,2484.5C 1928.81,2483.97 1928.31,2483.31 1928,2482.5C 1927.5,2478.51 1927.33,2474.51 1927.5,2470.5C 1938.17,2470.33 1948.84,2470.5 1959.5,2471C 1960.67,2471.5 1961.5,2472.33 1962,2473.5C 1962.62,2477.22 1963.45,2480.89 1964.5,2484.5C 1972.73,2477.06 1982.07,2471.72 1992.5,2468.5 Z"/></g>
<g><path style="opacity:1" fill="#969898" d="M 2114.5,2468.5 C 2137.53,2465.61 2156.03,2473.28 2170,2491.5C 2183.39,2518.12 2182.39,2544.12 2167,2569.5C 2151.11,2585.6 2131.94,2591.44 2109.5,2587C 2087.59,2581.42 2074.09,2567.59 2069,2545.5C 2064.49,2523.66 2068.49,2503.66 2081,2485.5C 2090.27,2475.95 2101.44,2470.28 2114.5,2468.5 Z M 2116.5,2485.5 C 2139.21,2483.71 2152.38,2494.05 2156,2516.5C 2157.6,2529.51 2156.27,2542.18 2152,2554.5C 2144.29,2568.42 2132.45,2573.92 2116.5,2571C 2104.64,2568.81 2096.81,2561.98 2093,2550.5C 2087.44,2532.6 2088.77,2515.26 2097,2498.5C 2101.82,2491.52 2108.32,2487.18 2116.5,2485.5 Z"/></g>
<g><path style="opacity:1" fill="#969898" d="M 2411.5,2468.5 C 2450.82,2467.12 2469.66,2486.12 2468,2525.5C 2467.63,2526.42 2467.13,2527.25 2466.5,2528C 2439.84,2528.5 2413.17,2528.67 2386.5,2528.5C 2387.81,2561.99 2404.81,2575.49 2437.5,2569C 2443.88,2566.14 2450.22,2563.3 2456.5,2560.5C 2457.89,2560.62 2459.23,2560.95 2460.5,2561.5C 2462.95,2564.24 2465.29,2567.07 2467.5,2570C 2454.9,2582.99 2439.4,2589.15 2421,2588.5C 2387.71,2586.55 2369.38,2568.88 2366,2535.5C 2363.11,2512.48 2370.28,2493.32 2387.5,2478C 2395.03,2473.33 2403.03,2470.16 2411.5,2468.5 Z M 2413.5,2484.5 C 2435.95,2482.72 2447.95,2493.06 2449.5,2515.5C 2428.82,2515.83 2408.16,2515.5 2387.5,2514.5C 2389.32,2504.01 2394.32,2495.51 2402.5,2489C 2406.16,2487.18 2409.82,2485.68 2413.5,2484.5 Z"/></g>
<g><path style="opacity:1" fill="#969898" d="M 2950.5,2468.5 C 2980.34,2465.22 2999.18,2477.89 3007,2506.5C 3008.27,2512.79 3008.61,2519.13 3008,2525.5C 3007.63,2526.42 3007.13,2527.25 3006.5,2528C 2979.84,2528.5 2953.17,2528.67 2926.5,2528.5C 2927.63,2561.48 2944.3,2574.98 2976.5,2569C 2983.33,2566.41 2990,2563.58 2996.5,2560.5C 3002.06,2562.22 3005.23,2565.89 3006,2571.5C 2996.17,2581.16 2984.33,2586.66 2970.5,2588C 2928.27,2589.78 2906.61,2569.44 2905.5,2527C 2905.49,2495.56 2920.49,2476.06 2950.5,2468.5 Z M 2953.5,2484.5 C 2975.95,2482.72 2987.95,2493.05 2989.5,2515.5C 2968.82,2515.83 2948.16,2515.5 2927.5,2514.5C 2929.72,2498.63 2938.39,2488.63 2953.5,2484.5 Z"/></g>
<g><path style="opacity:1" fill="#969898" d="M 3589.5,2468.5 C 3604.39,2467.76 3618.73,2470.26 3632.5,2476C 3633.49,2486.42 3633.82,2496.92 3633.5,2507.5C 3629.23,2507.8 3625.07,2507.46 3621,2506.5C 3619.64,2500.6 3618.64,2494.6 3618,2488.5C 3584.22,2479.82 3567.06,2492.99 3566.5,2528C 3565.91,2540.8 3569.41,2552.3 3577,2562.5C 3587.78,2571.84 3599.95,2574.01 3613.5,2569C 3617.84,2566.83 3621.84,2564.16 3625.5,2561C 3627.83,2560.33 3630.17,2560.33 3632.5,2561C 3634.91,2563.74 3636.91,2566.74 3638.5,2570C 3630.07,2581.22 3618.74,2587.22 3604.5,2588C 3575.3,2590.79 3556.13,2578.29 3547,2550.5C 3544.08,2536.91 3543.75,2523.24 3546,2509.5C 3551.95,2486.63 3566.45,2472.96 3589.5,2468.5 Z"/></g>
<g><path style="opacity:1" fill="#969898" d="M 1650.5,2470.5 C 1662.83,2470.5 1675.17,2470.5 1687.5,2470.5C 1687.5,2503.5 1687.5,2536.5 1687.5,2569.5C 1692.61,2569.96 1697.61,2570.96 1702.5,2572.5C 1703.19,2573.03 1703.69,2573.69 1704,2574.5C 1704.5,2578.49 1704.67,2582.49 1704.5,2586.5C 1686.5,2586.5 1668.5,2586.5 1650.5,2586.5C 1650.33,2582.15 1650.5,2577.82 1651,2573.5C 1655.84,2571.23 1661.01,2569.89 1666.5,2569.5C 1666.5,2542.17 1666.5,2514.83 1666.5,2487.5C 1661.83,2486.78 1657.16,2485.94 1652.5,2485C 1652,2484.5 1651.5,2484 1651,2483.5C 1650.5,2479.18 1650.33,2474.85 1650.5,2470.5 Z"/></g>
<g><path style="opacity:1" fill="#969898" d="M 3143.5,2470.5 C 3156.17,2470.5 3168.83,2470.5 3181.5,2470.5C 3181.33,2497.84 3181.5,2525.17 3182,2552.5C 3184.79,2565.25 3192.79,2571.58 3206,2571.5C 3217.55,2570.23 3227.21,2565.23 3235,2556.5C 3235.5,2533.5 3235.67,2510.5 3235.5,2487.5C 3229.95,2487.36 3224.79,2486.03 3220,2483.5C 3219.5,2479.18 3219.33,2474.85 3219.5,2470.5C 3232.17,2470.5 3244.83,2470.5 3257.5,2470.5C 3257.5,2503.5 3257.5,2536.5 3257.5,2569.5C 3262.86,2570.14 3268.03,2571.47 3273,2573.5C 3273.5,2578.15 3273.67,2582.82 3273.5,2587.5C 3262.42,2587.93 3251.42,2587.43 3240.5,2586C 3240,2585.5 3239.5,2585 3239,2584.5C 3238.09,2580.21 3237.42,2575.87 3237,2571.5C 3224.27,2585.74 3208.44,2591.24 3189.5,2588C 3173.13,2584.3 3163.63,2574.13 3161,2557.5C 3159.57,2534.2 3159.07,2510.87 3159.5,2487.5C 3154,2487.37 3148.83,2486.03 3144,2483.5C 3143.5,2479.18 3143.33,2474.85 3143.5,2470.5 Z"/></g>
<g><path style="opacity:1" fill="#969898" d="M 3480.5,2470.5 C 3493.17,2470.5 3505.83,2470.5 3518.5,2470.5C 3518.5,2503.5 3518.5,2536.5 3518.5,2569.5C 3523.99,2569.89 3529.16,2571.23 3534,2573.5C 3534.5,2577.82 3534.67,2582.15 3534.5,2586.5C 3516.5,2586.5 3498.5,2586.5 3480.5,2586.5C 3480.33,2582.15 3480.5,2577.82 3481,2573.5C 3486.16,2571.1 3491.66,2569.77 3497.5,2569.5C 3497.5,2542.17 3497.5,2514.83 3497.5,2487.5C 3492.03,2486.91 3486.7,2485.74 3481.5,2484C 3480.53,2479.6 3480.2,2475.1 3480.5,2470.5 Z"/></g>
</svg>
